<svg xmlns="http://www.w3.org/2000/svg" xmlns:xlink="http://www.w3.org/1999/xlink" width="35" height="31" viewBox="0 0 35 31"><defs><clipPath id="b"><rect width="35" height="31"/></clipPath></defs><g id="a" clip-path="url(#b)"><rect width="35" height="31" fill="#fff"/><path d="M28.608,52.98,15.316,65.509a1.183,1.183,0,0,1-1.629,0L.4,52.979A1.292,1.292,0,0,1,.315,51.2a1.178,1.178,0,0,1,1.708-.086l11.27,10.628V33.253A1.22,1.22,0,0,1,14.433,32a1.337,1.337,0,0,1,1.276,1.253V61.747L26.977,51.121a1.178,1.178,0,0,1,1.708.086A1.289,1.289,0,0,1,28.608,52.98Z" transform="translate(-31.417 30.001) rotate(-90)"/></g></svg>