<svg xmlns="http://www.w3.org/2000/svg" xmlns:xlink="http://www.w3.org/1999/xlink" width="82" height="23" viewBox="0 0 82 23"><defs><clipPath id="b"><rect width="82" height="23"/></clipPath></defs><g id="a" clip-path="url(#b)"><rect width="82" height="23"/><g transform="translate(-761.871 -88.219)"><path d="M10.939,8.4v6.664H7.127V8.841c0-1.276-.449-1.927-1.443-1.927-1.154,0-1.872.818-1.872,2.239v5.909H0V0H3.812V4.724A4.723,4.723,0,0,1,6.766,3.669c2.541,0,4.173,1.861,4.173,4.729" transform="translate(765 92.5)" fill="rgba(255,255,255,0.2)"/><path d="M65.125,16.579V27.646H62.178l-.326-.783a5.24,5.24,0,0,1-3.339,1.157,5.643,5.643,0,0,1-5.8-5.908,5.615,5.615,0,0,1,5.8-5.867,5.252,5.252,0,0,1,3.381,1.189l.39-.856ZM61.5,22.121a2.478,2.478,0,1,0-2.477,2.524A2.431,2.431,0,0,0,61.5,22.121" transform="translate(724.135 79.905)" fill="rgba(255,255,255,0.2)"/><path d="M123.226,17.547v3.488h-1.48c-1.35,0-1.914.592-1.914,2v5.627H116.02V17.6h2.554l.595,1.228a3.7,3.7,0,0,1,3.048-1.281Z" transform="translate(675.053 78.896)" fill="rgba(255,255,255,0.2)"/><path d="M162.443,0V15.062h-2.821l-.359-.822a5.12,5.12,0,0,1-3.338,1.2,5.645,5.645,0,0,1-5.815-5.908,5.636,5.636,0,0,1,5.815-5.9,5.168,5.168,0,0,1,2.75.768V0Zm-3.531,9.53a2.478,2.478,0,1,0-4.954,0,2.478,2.478,0,1,0,4.954,0" transform="translate(648.623 92.5)" fill="rgba(255,255,255,0.2)"/><path d="M221.436,16.579V27.646H218.49l-.327-.783a5.241,5.241,0,0,1-3.339,1.157,5.643,5.643,0,0,1-5.8-5.908,5.616,5.616,0,0,1,5.8-5.867,5.25,5.25,0,0,1,3.381,1.189l.39-.856Zm-3.626,5.542a2.478,2.478,0,1,0-2.477,2.524,2.431,2.431,0,0,0,2.477-2.524" transform="translate(602.952 79.905)" fill="rgba(255,255,255,0.2)"/><path d="M313.526,14.537a1.174,1.174,0,0,1-1.283-1.271V10.244h2.684V6.809h-2.78V3.628l-.783,0-2.932,3.123V13.92a3.641,3.641,0,0,0,3.935,3.955h2.623V14.537Z" transform="translate(525.882 89.687)" fill="rgba(255,255,255,0.2)"/><path d="M279.538,17.547v3.488h-1.48c-1.349,0-1.915.592-1.915,2v5.627h-3.811V17.6h2.554l.595,1.228a3.7,3.7,0,0,1,3.048-1.281Z" transform="translate(553.869 78.896)" fill="rgba(255,255,255,0.2)"/></g></g></svg>